<svg width="209" height="44" viewBox="0 0 209 44" fill="none" xmlns="http://www.w3.org/2000/svg">
<path d="M54.2597 38.2856H28.9568C31.2031 35.9839 35.8441 34.4802 40.9326 34.4802C45.2161 34.4802 49.2904 35.5568 51.8223 37.3595L52.9286 35.8108C50.0459 33.7541 45.6748 32.5763 40.9348 32.5763C39.1202 32.5741 37.3102 32.7561 35.5338 33.1203C36.9212 32.5493 38.358 32.1065 39.8263 31.7941C44.0221 30.904 48.2269 31.1108 51.078 32.3493L51.8403 30.605C49.612 29.6385 46.781 29.2317 43.7298 29.3845L48.1392 24.9767L42.1266 18.9662V10.4607H33.6225L27.6099 4.4502L21.5973 10.4607H13.0866V18.9617L7.07393 24.9722L11.4811 29.3778C8.43206 29.2294 5.60113 29.634 3.37732 30.596L4.13958 32.3425C6.99523 31.1063 11.1978 30.8972 15.3913 31.7874C16.8596 32.0975 18.2964 32.5426 19.6838 33.1135C17.9052 32.7494 16.0951 32.5696 14.2805 32.5741C9.54059 32.5741 5.16941 33.7541 2.28677 35.8086L3.39306 37.3573C5.92268 35.5523 9.99929 34.4757 14.2828 34.4757C19.3712 34.4757 24.0122 35.9794 26.2585 38.2811H0.951136C0.424976 38.2811 0 38.7082 0 39.2319V43.0373C0 43.5633 0.427224 43.9881 0.951136 43.9881H54.2597C54.7859 43.9881 55.2109 43.5611 55.2109 43.0373V39.2364C55.2109 38.7104 54.7836 38.2856 54.2597 38.2856ZM26.652 42.091H1.90227V40.1872H26.652V42.091ZM27.6054 36.5301C25.4536 33.5541 21.0374 31.0501 15.7826 29.933C15.4228 29.8565 15.0653 29.8003 14.7078 29.7396L9.94083 24.9744L15.1147 19.8023V12.4882H22.4315L27.6054 7.31608L32.7793 12.4882H40.0961V19.8023L45.27 24.9744L40.4986 29.7441C40.1433 29.8048 39.7903 29.861 39.4328 29.9375C34.1734 31.0523 29.7573 33.5541 27.6054 36.5301ZM53.3063 42.091H28.5566V40.1872H53.3063V42.091Z" fill="#E6F5F4"/>
<path d="M37.6499 19.7461C37.4813 20.0159 37.1867 20.1777 36.8697 20.1777H32.53C31.3945 20.1777 31.2371 20.7149 31.2326 20.7306V14.6797C31.0369 14.6797 30.8548 14.7808 30.7514 14.9449L30.1533 15.9362L29.8452 15.9204C29.5574 15.9182 29.3236 16.152 29.3236 16.4397H29.4742C29.6159 16.4397 29.7305 16.5543 29.7305 16.6959V23.3043H31.2303V22.0343C31.2348 21.3802 32.1477 21.4162 32.3771 21.4364C32.4153 21.4387 32.4535 21.4409 32.4918 21.4409H36.9281V23.3807H28.1408V18.9976C27.9452 18.9976 27.7631 19.0988 27.6596 19.2629L27.0615 20.2541L26.7535 20.2384C26.4656 20.2384 26.2318 20.4699 26.2318 20.7576H26.3824C26.5241 20.7576 26.6388 20.8722 26.6388 21.0139V23.3785H24.7882V18.9954C24.5926 18.9954 24.4105 19.0965 24.307 19.2606L23.7089 20.2519L23.4009 20.2361C23.1131 20.2361 22.8792 20.4676 22.8792 20.7554H23.0299C23.1715 20.7554 23.2862 20.87 23.2862 21.0116V23.3762H21.8899V17.2286C21.6942 17.2286 21.5121 17.3298 21.4087 17.4939L20.8105 18.4851L20.5025 18.4694C20.2147 18.4694 19.9808 18.7009 19.9808 18.9886H20.1315C20.2731 18.9886 20.3878 19.1033 20.3878 19.2449V20.1035L17.9504 22.6435C17.9504 22.6435 16.7856 23.6662 16.7856 25.4284C16.7856 27.1907 18.1483 28.5551 19.9831 28.4135C21.8179 28.2718 22.1304 26.7928 22.3013 26.0825C22.3013 26.0825 20.9927 27.8155 19.5446 27.3053C18.0943 26.7928 16.7452 24.7474 20.3901 21.7624V23.3762V24.88H21.8943H23.2907H24.795H26.6455H28.1498H36.9371H38.4414V23.3762V18.9931C38.2458 18.9931 38.0637 19.0943 37.9602 19.2584L37.6499 19.7461Z" fill="#E6F5F4"/>
<path d="M29.7373 26.8961H29.9419C31.0415 26.8961 31.2303 25.8734 31.2303 25.8734V24.9653H29.7373V26.8961Z" fill="#E6F5F4"/>
<path d="M17.914 19.8247C18.2446 19.8247 18.5121 19.5572 18.5121 19.2268C18.5121 18.8964 18.2446 18.6289 17.914 18.6289C17.5835 18.6289 17.3159 18.8964 17.3159 19.2268C17.3159 19.5572 17.5857 19.8247 17.914 19.8247Z" fill="#E6F5F4"/>
<path d="M19.2431 19.8247C19.5735 19.8247 19.8412 19.557 19.8412 19.2268C19.8412 18.8966 19.5735 18.6289 19.2431 18.6289C18.9128 18.6289 18.645 18.8966 18.645 19.2268C18.645 19.557 18.9128 19.8247 19.2431 19.8247Z" fill="#E6F5F4"/>
<path d="M26.8882 25.8174C26.5576 25.8174 26.29 26.0849 26.29 26.4153C26.29 26.7457 26.5576 27.0132 26.8882 27.0132C27.2187 27.0132 27.4863 26.7457 27.4863 26.4153C27.484 26.0849 27.2164 25.8174 26.8882 25.8174Z" fill="#E6F5F4"/>
<path d="M23.83 25.8174C23.4995 25.8174 23.2319 26.0849 23.2319 26.4153C23.2319 26.7457 23.4995 27.0132 23.83 27.0132C24.1606 27.0132 24.4282 26.7457 24.4282 26.4153C24.4259 26.0849 24.1606 25.8174 23.83 25.8174Z" fill="#E6F5F4"/>
<path d="M28.2173 25.8174C27.8867 25.8174 27.6191 26.0849 27.6191 26.4153C27.6191 26.7457 27.8867 27.0132 28.2173 27.0132C28.5478 27.0132 28.8154 26.7457 28.8154 26.4153C28.8131 26.0849 28.5455 25.8174 28.2173 25.8174Z" fill="#E6F5F4"/>
<path d="M74.2467 32.1274H64.9805V33.9211H68.5287V43.8652H70.7143V33.9211H74.2467V32.1274Z" fill="#E6F5F4"/>
<path d="M77.9165 32.1272L73.3047 43.865H75.0023C75.1867 43.865 75.3419 43.8133 75.47 43.7099C75.596 43.6065 75.6814 43.4941 75.7264 43.3683L76.6033 40.9744H81.4669L82.3439 43.3683C82.3978 43.5099 82.4855 43.6267 82.6069 43.7211C82.7284 43.8156 82.8835 43.8628 83.0746 43.8628H84.7633L80.1515 32.125H77.9165V32.1272ZM77.1609 39.4324L78.591 35.5438C78.6607 35.3663 78.7327 35.1572 78.8069 34.919C78.8788 34.6807 78.9553 34.4244 79.0295 34.148C79.1059 34.4244 79.1824 34.6807 79.2611 34.9145C79.3398 35.1505 79.4117 35.355 79.477 35.5281L80.907 39.4324H77.1609Z" fill="#E6F5F4"/>
<path d="M88.4326 32.1274H86.2402V43.8652H88.4326V32.1274Z" fill="#E6F5F4"/>
<path d="M97.3574 37.8008C97.7195 37.6771 98.032 37.5243 98.2951 37.3467C98.5582 37.1691 98.774 36.9691 98.9449 36.7511C99.1158 36.533 99.2417 36.297 99.3227 36.0453C99.4036 35.7935 99.4441 35.5305 99.4441 35.2541C99.4441 34.773 99.3632 34.3392 99.2013 33.9549C99.0394 33.5705 98.783 33.2423 98.4345 32.9726C98.086 32.7029 97.6385 32.4938 97.0944 32.3477C96.5502 32.2016 95.8936 32.1274 95.1246 32.1274H91.0728V43.8652H95.5069C96.1882 43.8652 96.7953 43.7798 97.326 43.6045C97.8566 43.4314 98.3018 43.1909 98.6661 42.8852C99.0281 42.5795 99.3047 42.2154 99.4936 41.7928C99.6824 41.3702 99.7769 40.9117 99.7769 40.4127C99.7769 39.0348 98.9697 38.1649 97.3574 37.8008ZM93.2561 33.8155H95.1246C95.8599 33.8155 96.4018 33.9459 96.7481 34.2044C97.0944 34.4651 97.2675 34.8989 97.2675 35.5126C97.2675 36.1015 97.0741 36.533 96.6919 36.8028C96.3074 37.0725 95.7452 37.2096 95.0032 37.2096H93.2583V33.8155H93.2561ZM97.5081 41.0555C97.4361 41.2713 97.317 41.4624 97.1506 41.6242C96.9864 41.786 96.7661 41.9164 96.494 42.0131C96.2197 42.1097 95.8801 42.1592 95.4754 42.1592H93.2583V38.7178H95.4664C95.8509 38.7178 96.177 38.7561 96.449 38.8325C96.7189 38.9089 96.9415 39.019 97.1146 39.1607C97.2877 39.3045 97.4159 39.4776 97.4969 39.6799C97.5778 39.8822 97.6183 40.1115 97.6183 40.3655C97.616 40.6105 97.5801 40.8397 97.5081 41.0555Z" fill="#E6F5F4"/>
<path d="M105.128 32.1272L100.517 43.865H102.214C102.399 43.865 102.554 43.8133 102.682 43.7099C102.808 43.6065 102.893 43.4941 102.938 43.3683L103.815 40.9744H108.679L109.556 43.3683C109.61 43.5099 109.697 43.6267 109.819 43.7211C109.94 43.8156 110.095 43.8628 110.287 43.8628H111.975L107.363 32.125H105.128V32.1272ZM104.373 39.4324L105.803 35.5438C105.873 35.3663 105.945 35.1572 106.019 34.919C106.091 34.6807 106.167 34.4244 106.241 34.148C106.318 34.4244 106.394 34.6807 106.473 34.9145C106.552 35.1505 106.624 35.355 106.689 35.5281L108.119 39.4324H104.373Z" fill="#E6F5F4"/>
<path d="M120.888 37.1759H115.384V32.1274H113.183V43.8652H115.384V38.7358H120.888V43.8652H123.09V32.1274H120.888V37.1759Z" fill="#E6F5F4"/>
<path d="M132.07 32.1272L127.458 43.865H129.156C129.341 43.865 129.496 43.8133 129.624 43.7099C129.75 43.6065 129.835 43.4941 129.88 43.3683L130.757 40.9744H135.621L136.498 43.3683C136.552 43.5099 136.639 43.6267 136.761 43.7211C136.882 43.8156 137.037 43.8628 137.228 43.8628H138.917L134.305 32.125H132.07V32.1272ZM131.315 39.4324L132.745 35.5438C132.815 35.3663 132.886 35.1572 132.961 34.919C133.033 34.6807 133.109 34.4244 133.183 34.148C133.26 34.4244 133.336 34.6807 133.415 34.9145C133.494 35.1505 133.566 35.355 133.631 35.5281L135.061 39.4324H131.315Z" fill="#E6F5F4"/>
<path d="M142.324 34.9688C142.657 34.6114 143.055 34.3372 143.518 34.1461C143.981 33.9551 144.487 33.8584 145.04 33.8584C145.512 33.8584 145.899 33.9079 146.205 34.0045C146.511 34.1012 146.765 34.2068 146.965 34.3214C147.165 34.4361 147.329 34.5417 147.459 34.6384C147.59 34.735 147.716 34.7845 147.842 34.7845C147.961 34.7845 148.053 34.7598 148.12 34.7103C148.188 34.6608 148.244 34.6047 148.287 34.5395L149.018 33.5257C148.552 33.0649 147.992 32.6963 147.34 32.4176C146.688 32.1389 145.926 31.9995 145.053 31.9995C144.161 31.9995 143.345 32.1479 142.605 32.4423C141.865 32.7368 141.231 33.1504 140.7 33.6808C140.17 34.2113 139.758 34.8429 139.466 35.5757C139.174 36.3085 139.027 37.1176 139.027 37.9988C139.027 38.8709 139.158 39.6733 139.421 40.4106C139.684 41.1456 140.062 41.7795 140.554 42.3099C141.047 42.8404 141.64 43.254 142.337 43.553C143.032 43.8497 143.817 44.0003 144.689 44.0003C145.663 44.0003 146.499 43.8429 147.194 43.5305C147.889 43.2158 148.476 42.764 148.952 42.1751L148.091 41.2423C148.006 41.1501 147.902 41.1052 147.783 41.1052C147.713 41.1052 147.648 41.1209 147.588 41.1501C147.527 41.1793 147.471 41.2198 147.417 41.267C147.237 41.4288 147.057 41.5659 146.877 41.6761C146.695 41.7862 146.504 41.8784 146.301 41.9481C146.099 42.0177 145.876 42.0694 145.636 42.1032C145.395 42.1346 145.125 42.1526 144.829 42.1526C144.329 42.1526 143.864 42.0582 143.432 41.8716C142.998 41.6851 142.623 41.4153 142.303 41.0647C141.984 40.714 141.732 40.2802 141.543 39.7655C141.357 39.2508 141.262 38.6641 141.262 38.0033C141.262 37.3649 141.357 36.7895 141.543 36.2792C141.73 35.76 141.991 35.3262 142.324 34.9688Z" fill="#E6F5F4"/>
<path d="M154.077 32.1272L149.465 43.865H151.163C151.347 43.865 151.503 43.8133 151.631 43.7099C151.757 43.6065 151.842 43.4941 151.887 43.3683L152.764 40.9744H157.628L158.504 43.3683C158.558 43.5099 158.646 43.6267 158.768 43.7211C158.889 43.8156 159.044 43.8628 159.235 43.8628H160.924L156.312 32.125H154.077V32.1272ZM153.322 39.4324L154.752 35.5438C154.821 35.3663 154.893 35.1572 154.968 34.919C155.039 34.6807 155.116 34.4244 155.19 34.148C155.267 34.4244 155.343 34.6807 155.422 34.9145C155.5 35.1505 155.572 35.355 155.638 35.5281L157.068 39.4324H153.322Z" fill="#E6F5F4"/>
<path d="M170.919 33.7705C170.399 33.2536 169.774 32.8512 169.044 32.5613C168.313 32.2713 167.503 32.1274 166.615 32.1274H162.134V43.8652H166.615C167.503 43.8652 168.313 43.7213 169.044 43.4359C169.774 43.1482 170.399 42.7458 170.919 42.2266C171.438 41.7074 171.843 41.087 172.129 40.3677C172.416 39.6484 172.558 38.8572 172.558 37.9963C172.558 37.1354 172.414 36.3465 172.129 35.6249C171.841 34.9057 171.438 34.2875 170.919 33.7705ZM170.067 39.7293C169.894 40.2418 169.646 40.6734 169.327 41.0285C169.008 41.3837 168.619 41.6557 168.162 41.8445C167.703 42.0333 167.189 42.1277 166.615 42.1277H164.333V33.865H166.615C167.189 33.865 167.706 33.9594 168.162 34.1482C168.619 34.337 169.008 34.609 169.327 34.9641C169.646 35.3192 169.894 35.7508 170.067 36.2633C170.24 36.7758 170.328 37.3535 170.328 37.9963C170.325 38.6392 170.24 39.2168 170.067 39.7293Z" fill="#E6F5F4"/>
<path d="M174.271 43.8652H181.678V42.1209H176.472V38.7988H180.574V37.1197H176.472V33.865H181.678V32.1274H174.271V43.8652Z" fill="#E6F5F4"/>
<path d="M194.402 32.1364C194.332 32.1409 194.267 32.1544 194.211 32.1769C194.155 32.1994 194.103 32.2331 194.056 32.2825C194.011 32.332 193.966 32.3972 193.921 32.4781L190.445 38.9808C190.353 39.1539 190.267 39.336 190.184 39.5248C190.103 39.7136 190.024 39.9069 189.948 40.1002C189.871 39.9114 189.795 39.7226 189.716 39.536C189.637 39.3495 189.552 39.1696 189.46 38.9966L185.952 32.4781C185.909 32.3972 185.862 32.332 185.815 32.2825C185.765 32.2331 185.714 32.1994 185.658 32.1769C185.601 32.1544 185.536 32.1409 185.466 32.1364C185.397 32.1319 185.311 32.1274 185.215 32.1274H183.566V43.8652H185.491V36.2835C185.491 36.1374 185.487 35.9801 185.478 35.8093C185.469 35.6384 185.455 35.4653 185.433 35.2855L189.03 41.9658C189.111 42.1164 189.217 42.2356 189.347 42.3187C189.478 42.4019 189.628 42.4446 189.802 42.4446H190.103C190.276 42.4446 190.427 42.4019 190.557 42.3187C190.688 42.2356 190.793 42.1164 190.874 41.9658L194.422 35.3103C194.407 35.4833 194.395 35.6542 194.386 35.8227C194.377 35.9913 194.375 36.1442 194.375 36.2858V43.8674H196.3V32.1297H194.652C194.555 32.1274 194.472 32.1297 194.402 32.1364Z" fill="#E6F5F4"/>
<path d="M206.234 32.1274C206.05 32.1274 205.899 32.1791 205.78 32.2825C205.661 32.3859 205.571 32.4961 205.513 32.6152L203.377 36.5353C203.253 36.7623 203.145 36.9803 203.055 37.1894C202.965 37.3984 202.886 37.6052 202.817 37.8098C202.74 37.6097 202.657 37.4052 202.565 37.1961C202.473 36.9871 202.365 36.7668 202.241 36.5353L200.089 32.6152C200.013 32.4736 199.92 32.359 199.808 32.2668C199.698 32.1746 199.547 32.1297 199.358 32.1297H197.434L201.713 39.3068V43.8697H203.896V39.3068L208.168 32.1297H206.234V32.1274Z" fill="#E6F5F4"/>
<path d="M68.5533 8.42199C69.3403 8.42199 69.9542 7.8106 69.9542 7.02164C69.9542 6.23492 69.3426 5.62354 68.5533 5.62354C67.7663 5.62354 67.1255 6.23492 67.1255 7.02164C67.1232 7.8106 67.7663 8.42199 68.5533 8.42199Z" fill="#E6F5F4"/>
<path d="M72.1988 8.42199C72.9273 8.42199 73.5974 7.8106 73.5974 7.02164C73.5974 6.23492 72.9273 5.62354 72.1988 5.62354C71.3825 5.62354 70.7417 6.23492 70.7417 7.02164C70.7417 7.8106 71.3825 8.42199 72.1988 8.42199Z" fill="#E6F5F4"/>
<path d="M83.774 25.9707C83.774 25.1839 83.1624 24.5703 82.3731 24.5703C81.5862 24.5703 80.9453 25.1817 80.9453 25.9707C80.9453 26.7574 81.5862 27.3688 82.3731 27.3688C83.1624 27.371 83.774 26.7574 83.774 25.9707Z" fill="#E6F5F4"/>
<path d="M93.0762 25.9707C93.0762 25.1839 92.4061 24.5703 91.6753 24.5703C90.8591 24.5703 90.2183 25.1817 90.2183 25.9707C90.2183 26.7574 90.8591 27.3688 91.6753 27.3688C92.4061 27.371 93.0762 26.7574 93.0762 25.9707Z" fill="#E6F5F4"/>
<path d="M88.3228 24.5728C87.5359 24.5728 86.895 25.1841 86.895 25.9731C86.895 26.7598 87.5359 27.3712 88.3228 27.3712C89.1098 27.3712 89.7237 26.7598 89.7237 25.9731C89.7237 25.1841 89.1098 24.5728 88.3228 24.5728Z" fill="#E6F5F4"/>
<path d="M105.731 10.4044C102.756 10.4044 100.541 12.9983 99.4329 15.6799V7.16765C99.4329 5.76955 99.0259 5.21436 97.7127 5.21436H96.9257V20.344H94.5063H93.9239H93.8362C92.4938 20.344 91.6776 19.7618 91.6192 18.303V14.8055C91.6192 13.4074 91.2099 12.8522 89.899 12.8522H89.112V18.1569C89.0243 19.7303 88.2666 20.344 86.895 20.344H86.8073H86.2249H86.1372C84.7948 20.344 83.9786 19.7618 83.9201 18.303V14.8055C83.9201 13.4074 83.5131 12.8522 82.2 12.8522H81.413V18.1569C81.3253 19.7303 80.5675 20.344 79.1959 20.344H78.5259H75.5803V16.352C75.5803 12.796 73.3924 10.4044 70.2152 10.4044C66.8334 10.4044 64.6748 12.823 64.6748 16.788C64.6748 22.0635 69.9522 22.794 73.5386 22.794H78.5236H79.2521H79.8345C81.0307 22.7356 81.9639 22.3557 82.6632 21.6859C83.3333 22.3557 84.2956 22.7356 85.4919 22.794H86.2204H86.8028H87.5313C88.7275 22.7356 89.6607 22.3557 90.36 21.6859C91.03 22.3557 91.9924 22.7356 93.1886 22.794H93.9172H94.4995H112.49C113.482 22.794 113.657 20.8992 113.657 19.5011C113.664 14.9516 111.476 10.4044 105.731 10.4044ZM73.307 20.344C69.7498 20.344 67.0088 19.9933 67.0088 16.3789C67.0088 14.1042 68.1758 12.6477 69.9544 12.6477C73.5408 12.6499 73.307 16.089 73.307 20.344ZM99.6083 20.344C100.424 16.7296 102.758 13.1152 105.79 13.1152C110.28 13.1152 110.923 17.7501 111.067 20.344H99.6083Z" fill="#E6F5F4"/>
<path d="M130.924 8.42199C131.652 8.42199 132.325 7.8106 132.325 7.02164C132.325 6.23492 131.655 5.62354 130.924 5.62354C130.108 5.62354 129.467 6.23492 129.467 7.02164C129.467 7.8106 130.108 8.42199 130.924 8.42199Z" fill="#E6F5F4"/>
<path d="M137.252 22.7939H137.982H138.565C139.761 22.7355 140.694 22.3556 141.393 21.6858C142.063 22.3556 143.026 22.7355 144.222 22.7939H144.368H144.544C144.661 22.8231 144.719 22.8231 144.777 22.8231C146.878 22.8231 148.276 22.241 149.18 21.0159C150.172 22.1533 151.6 22.8523 153.293 22.8523C154.925 22.8523 156.297 22.241 157.23 21.0744C158.021 22.1443 159.101 22.5961 160.699 22.7377V22.7939H163.177C166.386 22.5894 167.261 19.937 167.261 17.1678V14.8076C167.261 13.4095 166.851 12.8543 165.541 12.8543H164.754V18.159C164.666 19.7325 163.908 20.3461 162.536 20.3461H162.013H161.633C159.067 20.3461 158.628 19.3841 158.628 16.8778C158.628 12.8836 156.441 10.4942 153.293 10.4942C149.911 10.4942 147.752 12.9128 147.752 16.8778C147.752 19.3571 147.321 20.3236 144.831 20.3439C143.511 20.3326 142.709 19.7504 142.65 18.3051V14.8054C142.65 13.4073 142.241 12.8521 140.93 12.8521H140.143V18.1568C140.055 19.7302 139.298 20.3439 137.926 20.3439H137.256H134.313V16.3518C134.313 12.7959 132.125 10.4043 128.948 10.4043C125.566 10.4043 123.407 12.8229 123.407 16.7879C123.407 22.0634 128.685 22.7939 132.271 22.7939H137.252ZM153.027 12.8521C155.098 12.8521 156.234 14.221 156.234 16.8464C156.234 18.975 155.242 20.49 153.464 20.49C151.334 20.49 150.14 18.9165 150.14 16.4665C150.14 14.2232 151.278 12.8521 153.027 12.8521ZM132.033 20.3439C128.475 20.3439 125.734 19.9932 125.734 16.3788C125.734 14.1041 126.901 12.6476 128.68 12.6476C132.267 12.6498 132.033 16.0889 132.033 20.3439Z" fill="#E6F5F4"/>
<path d="M127.279 8.42199C128.066 8.42199 128.678 7.8106 128.678 7.02164C128.678 6.23492 128.066 5.62354 127.279 5.62354C126.492 5.62354 125.851 6.23492 125.851 7.02164C125.851 7.8106 126.492 8.42199 127.279 8.42199Z" fill="#E6F5F4"/>
<path d="M141.247 25.9707C141.247 26.7574 141.887 27.3688 142.704 27.3688C143.432 27.3688 144.102 26.7574 144.102 25.9707C144.102 25.1839 143.432 24.5703 142.704 24.5703C141.887 24.5726 141.247 25.1839 141.247 25.9707Z" fill="#E6F5F4"/>
<path d="M137.923 25.9707C137.923 26.7574 138.564 27.3688 139.351 27.3688C140.138 27.3688 140.75 26.7574 140.75 25.9707C140.75 25.1839 140.138 24.5703 139.351 24.5703C138.564 24.5726 137.923 25.1839 137.923 25.9707Z" fill="#E6F5F4"/>
<path d="M166.149 24.5728C165.333 24.5728 164.692 25.1841 164.692 25.9731C164.692 26.7598 165.333 27.3712 166.149 27.3712C166.878 27.3712 167.548 26.7598 167.548 25.9731C167.548 25.1841 166.878 24.5728 166.149 24.5728Z" fill="#E6F5F4"/>
<path d="M164.196 25.9707C164.196 25.1839 163.584 24.5703 162.797 24.5703C162.01 24.5703 161.369 25.1817 161.369 25.9707C161.369 26.7574 162.01 27.3688 162.797 27.3688C163.584 27.3688 164.196 26.7574 164.196 25.9707Z" fill="#E6F5F4"/>
<path d="M171.076 22.7946H180.961V20.3468C180.961 17.9282 179.882 13.6417 177.462 12.2144C176.064 11.2231 174.546 11.2231 174.546 11.2231C173.06 11.2231 172.097 11.7761 171.571 12.7674L171.162 13.5248C171.162 13.5248 171.688 13.2326 172.648 13.2326C173.231 13.2326 174.02 13.3495 174.953 13.7271C177.112 14.6307 178.364 18.3036 178.481 20.3445H169.878V21.5111C169.88 22.1225 170.377 22.7946 171.076 22.7946Z" fill="#E6F5F4"/>
<path d="M187.58 22.7949H188.163H199.594L199.623 20.3471C199.653 16.7327 198.456 12.0978 193.384 11.1358L201.2 5.3051C201.492 5.07134 201.636 4.72293 201.636 4.37229C201.636 4.08008 201.548 3.79012 201.373 3.55635L200.673 2.62354L189.768 10.7267C189.186 11.165 188.952 11.6011 188.952 12.0686C188.952 12.39 189.069 12.7384 189.33 13.0598L189.797 13.6712L189.826 13.7297C190.409 13.5544 190.877 13.4959 191.4 13.4959C196.154 13.4959 196.824 17.7509 196.97 20.3471H188.165H187.785C186.357 20.3471 185.568 19.6772 185.568 18.0431V7.16849C185.568 5.77039 185.158 5.21519 183.848 5.21519H183.061V18.1577C183.061 20.8685 184.488 22.6757 187.144 22.7926H187.58V22.7949Z" fill="#E6F5F4"/>
<path d="M204.027 4.10889H207.554C207.934 4.10889 208.166 3.81668 208.166 3.55594V3.09066H205.688C205.367 2.85689 205.337 2.45005 205.337 2.01174C205.337 1.02048 205.832 0.874376 206.124 0.874376C206.3 0.874376 207.087 0.932817 207.552 2.0994C207.552 1.80719 207.845 1.51723 207.845 1.16658C207.669 0.438312 206.999 0 206.212 0C205.045 0 204.287 0.874375 204.287 2.0994C204.287 2.42083 204.287 2.68157 204.404 2.91533L204.492 3.09066H203.442V3.55594C203.442 3.81668 203.676 4.10889 204.027 4.10889Z" fill="#E6F5F4"/>
<path d="M204.696 5.2166V21.0453C204.696 22.2703 205.337 22.794 206.27 22.794H207.145V6.41016C207.145 5.71111 206.475 5.21436 205.861 5.21436H204.696V5.2166Z" fill="#E6F5F4"/>
</svg>
