<svg width="133" height="28" viewBox="0 0 133 28" fill="none" xmlns="http://www.w3.org/2000/svg">
<path d="M34.5289 24.364H18.4271C19.8565 22.8993 22.8099 21.9424 26.048 21.9424C28.7738 21.9424 31.3666 22.6275 32.9778 23.7747L33.6818 22.7892C31.8474 21.4803 29.0657 20.7308 26.0494 20.7308C24.8947 20.7294 23.7428 20.8453 22.6124 21.077C23.4953 20.7137 24.4096 20.4319 25.344 20.233C28.014 19.6666 30.6898 19.7982 32.5042 20.5863L32.9893 19.4764C31.5712 18.8613 29.7697 18.6024 27.828 18.6997L30.634 15.8947L26.8078 12.0698V6.65715H21.3962L17.5699 2.83228L13.7437 6.65715H8.3278V12.0669L4.50159 15.8918L7.30614 18.6954C5.36585 18.601 3.56436 18.8584 2.1492 19.4706L2.63428 20.5821C4.45151 19.7953 7.12585 19.6623 9.79447 20.2288C10.7288 20.4261 11.6432 20.7094 12.526 21.0727C11.3942 20.841 10.2423 20.7265 9.08761 20.7294C6.07128 20.7294 3.28962 21.4803 1.45522 22.7877L2.15922 23.7733C3.76897 22.6247 6.36318 21.9395 9.08904 21.9395C12.3271 21.9395 15.2805 22.8964 16.71 24.3612H0.605268C0.270439 24.3612 0 24.6329 0 24.9662V27.3879C0 27.7226 0.27187 27.9929 0.605268 27.9929H34.5289C34.8637 27.9929 35.1342 27.7212 35.1342 27.3879V24.9691C35.1342 24.6344 34.8623 24.364 34.5289 24.364ZM16.9604 26.7857H1.21054V25.5741H16.9604V26.7857ZM17.5671 23.2469C16.1977 21.353 13.3874 19.7596 10.0434 19.0487C9.8145 19 9.58699 18.9643 9.35948 18.9257L6.32598 15.8932L9.61847 12.6019V7.94737H14.2746L17.5671 4.65603L20.8596 7.94737H25.5157V12.6019L28.8082 15.8932L25.7718 18.9285C25.5457 18.9671 25.3211 19.0029 25.0936 19.0515C21.7467 19.761 18.9364 21.353 17.5671 23.2469ZM33.9222 26.7857H18.1724V25.5741H33.9222V26.7857Z" fill="#005B7F"/>
<path d="M23.957 12.5662C23.8496 12.7378 23.6622 12.8408 23.4604 12.8408H20.6988C19.9762 12.8408 19.876 13.1827 19.8732 13.1927V9.34204C19.7487 9.34204 19.6328 9.40641 19.567 9.51083L19.1864 10.1416L18.9903 10.1316C18.8072 10.1302 18.6584 10.279 18.6584 10.462H18.7542C18.8444 10.462 18.9173 10.535 18.9173 10.6251V14.8305H19.8717V14.0223C19.8746 13.6061 20.4556 13.6289 20.6015 13.6418C20.6258 13.6432 20.6502 13.6447 20.6745 13.6447H23.4976V14.8791H17.9057V12.0898C17.7812 12.0898 17.6653 12.1542 17.5995 12.2586L17.2189 12.8894L17.0228 12.8794C16.8397 12.8794 16.6909 13.0267 16.6909 13.2098H16.7867C16.8769 13.2098 16.9499 13.2828 16.9499 13.3729V14.8777H15.7722V12.0884C15.6478 12.0884 15.5318 12.1528 15.466 12.2572L15.0854 12.888L14.8894 12.878C14.7062 12.878 14.5574 13.0253 14.5574 13.2084H14.6533C14.7434 13.2084 14.8164 13.2814 14.8164 13.3715V14.8762H13.9278V10.9641C13.8033 10.9641 13.6874 11.0285 13.6216 11.1329L13.241 11.7637L13.045 11.7537C12.8618 11.7537 12.713 11.901 12.713 12.0841H12.8089C12.899 12.0841 12.972 12.1571 12.972 12.2472V12.7936L11.4209 14.4099C11.4209 14.4099 10.6797 15.0608 10.6797 16.1822C10.6797 17.3036 11.5468 18.1719 12.7144 18.0818C13.882 17.9916 14.0809 17.0504 14.1897 16.5984C14.1897 16.5984 13.3569 17.7013 12.4354 17.3766C11.5125 17.0504 10.6539 15.7488 12.9734 13.8492V14.8762V15.8332H13.9307H14.8193H15.7765H16.9542H17.9114H23.5034H24.4606V14.8762V12.087C24.3361 12.087 24.2202 12.1513 24.1544 12.2558L23.957 12.5662Z" fill="#005B7F"/>
<path d="M18.9219 17.1162H19.0521C19.7518 17.1162 19.872 16.4653 19.872 16.4653V15.8875H18.9219V17.1162Z" fill="#005B7F"/>
<path d="M11.4001 12.6162C11.6105 12.6162 11.7808 12.446 11.7808 12.2357C11.7808 12.0254 11.6105 11.8552 11.4001 11.8552C11.1898 11.8552 11.0195 12.0254 11.0195 12.2357C11.0195 12.446 11.1912 12.6162 11.4001 12.6162Z" fill="#005B7F"/>
<path d="M12.2439 12.6162C12.4541 12.6162 12.6245 12.4458 12.6245 12.2357C12.6245 12.0256 12.4541 11.8552 12.2439 11.8552C12.0337 11.8552 11.8633 12.0256 11.8633 12.2357C11.8633 12.4458 12.0337 12.6162 12.2439 12.6162Z" fill="#005B7F"/>
<path d="M17.1111 16.4297C16.9007 16.4297 16.7305 16.5999 16.7305 16.8102C16.7305 17.0204 16.9007 17.1907 17.1111 17.1907C17.3214 17.1907 17.4917 17.0204 17.4917 16.8102C17.4903 16.5999 17.32 16.4297 17.1111 16.4297Z" fill="#005B7F"/>
<path d="M15.1658 16.4297C14.9554 16.4297 14.7852 16.5999 14.7852 16.8102C14.7852 17.0204 14.9554 17.1907 15.1658 17.1907C15.3761 17.1907 15.5464 17.0204 15.5464 16.8102C15.545 16.5999 15.3761 16.4297 15.1658 16.4297Z" fill="#005B7F"/>
<path d="M17.9548 16.4297C17.7445 16.4297 17.5742 16.5999 17.5742 16.8102C17.5742 17.0204 17.7445 17.1907 17.9548 17.1907C18.1652 17.1907 18.3355 17.0204 18.3355 16.8102C18.334 16.5999 18.1637 16.4297 17.9548 16.4297Z" fill="#005B7F"/>
<path d="M47.2483 20.4446H41.3516V21.586H43.6095V27.9141H45.0003V21.586H47.2483V20.4446Z" fill="#005B7F"/>
<path d="M49.5832 20.4445L46.6484 27.9141H47.7288C47.8461 27.9141 47.9448 27.8812 48.0264 27.8154C48.1065 27.7496 48.1609 27.6781 48.1895 27.598L48.7476 26.0746H51.8426L52.4006 27.598C52.435 27.6881 52.4908 27.7624 52.568 27.8225C52.6453 27.8826 52.744 27.9126 52.8657 27.9126H53.9403L51.0055 20.4431H49.5832V20.4445ZM49.1024 25.0933L50.0125 22.6187C50.0568 22.5057 50.1026 22.3727 50.1498 22.2211C50.1956 22.0695 50.2443 21.9064 50.2915 21.7305C50.3401 21.9064 50.3888 22.0695 50.4389 22.2182C50.489 22.3684 50.5347 22.4986 50.5762 22.6087L51.4863 25.0933H49.1024Z" fill="#005B7F"/>
<path d="M56.274 20.4446H54.8789V27.9141H56.274V20.4446Z" fill="#005B7F"/>
<path d="M61.9564 24.0549C62.1868 23.9762 62.3856 23.879 62.5531 23.766C62.7205 23.653 62.8578 23.5257 62.9666 23.3869C63.0753 23.2482 63.1555 23.098 63.207 22.9378C63.2585 22.7776 63.2842 22.6102 63.2842 22.4343C63.2842 22.1282 63.2327 21.8521 63.1297 21.6075C63.0267 21.3629 62.8636 21.1541 62.6418 20.9824C62.42 20.8108 62.1352 20.6777 61.789 20.5848C61.4427 20.4918 61.0249 20.4446 60.5355 20.4446H57.957V27.9141H60.7787C61.2123 27.9141 61.5987 27.8598 61.9363 27.7482C62.274 27.638 62.5574 27.485 62.7892 27.2905C63.0195 27.0959 63.1955 26.8642 63.3157 26.5953C63.4359 26.3264 63.496 26.0346 63.496 25.717C63.496 24.8402 62.9823 24.2866 61.9564 24.0549ZM59.3464 21.5188H60.5355C61.0034 21.5188 61.3482 21.6018 61.5686 21.7663C61.789 21.9322 61.8991 22.2083 61.8991 22.5988C61.8991 22.9735 61.7761 23.2482 61.5328 23.4198C61.2882 23.5914 60.9304 23.6787 60.4582 23.6787H59.3479V21.5188H59.3464ZM62.0522 26.1261C62.0065 26.2634 61.9306 26.385 61.8247 26.488C61.7203 26.591 61.5801 26.674 61.4069 26.7355C61.2323 26.797 61.0163 26.8284 60.7587 26.8284H59.3479V24.6385H60.753C60.9977 24.6385 61.2052 24.6628 61.3783 24.7114C61.55 24.7601 61.6917 24.8302 61.8018 24.9203C61.912 25.0118 61.9936 25.122 62.0451 25.2507C62.0966 25.3794 62.1224 25.5253 62.1224 25.687C62.1209 25.8429 62.098 25.9888 62.0522 26.1261Z" fill="#005B7F"/>
<path d="M66.8996 20.4445L63.9648 27.9141H65.0452C65.1625 27.9141 65.2612 27.8812 65.3428 27.8154C65.4229 27.7496 65.4773 27.6781 65.5059 27.598L66.064 26.0746H69.159L69.717 27.598C69.7514 27.6881 69.8072 27.7624 69.8845 27.8225C69.9617 27.8826 70.0605 27.9126 70.1821 27.9126H71.2567L68.3219 20.4431H66.8996V20.4445ZM66.4188 25.0933L67.3289 22.6187C67.3732 22.5057 67.419 22.3727 67.4662 22.2211C67.512 22.0695 67.5607 21.9064 67.6079 21.7305C67.6565 21.9064 67.7052 22.0695 67.7553 22.2182C67.8054 22.3684 67.8511 22.4986 67.8926 22.6087L68.8027 25.0933H66.4188Z" fill="#005B7F"/>
<path d="M76.931 23.6572H73.4282V20.4446H72.0273V27.9141H73.4282V24.6499H76.931V27.9141H78.3319V20.4446H76.931V23.6572Z" fill="#005B7F"/>
<path d="M84.0441 20.4445L81.1094 27.9141H82.1897C82.307 27.9141 82.4058 27.8812 82.4873 27.8154C82.5675 27.7496 82.6218 27.6781 82.6504 27.598L83.2085 26.0746H86.3035L86.8616 27.598C86.8959 27.6881 86.9517 27.7624 87.029 27.8225C87.1063 27.8826 87.205 27.9126 87.3266 27.9126H88.4012L85.4664 20.4431H84.0441V20.4445ZM83.5634 25.0933L84.4734 22.6187C84.5178 22.5057 84.5635 22.3727 84.6108 22.2211C84.6566 22.0695 84.7052 21.9064 84.7524 21.7305C84.8011 21.9064 84.8497 22.0695 84.8998 22.2182C84.9499 22.3684 84.9957 22.4986 85.0372 22.6087L85.9472 25.0933H83.5634Z" fill="#005B7F"/>
<path d="M90.5704 22.2526C90.7821 22.0252 91.0354 21.8506 91.3302 21.7291C91.6249 21.6075 91.9469 21.546 92.2989 21.546C92.5994 21.546 92.8455 21.5774 93.0401 21.6389C93.2347 21.7005 93.3964 21.7677 93.5237 21.8406C93.6511 21.9136 93.7555 21.9808 93.8385 22.0423C93.9215 22.1038 94.0016 22.1353 94.0818 22.1353C94.1576 22.1353 94.2163 22.1196 94.2592 22.0881C94.3021 22.0566 94.3379 22.0209 94.3651 21.9794L94.8301 21.3343C94.5339 21.041 94.1776 20.8065 93.7627 20.6291C93.3477 20.4517 92.8626 20.363 92.3075 20.363C91.7394 20.363 91.22 20.4574 90.7492 20.6448C90.2784 20.8322 89.8749 21.0954 89.5372 21.433C89.1996 21.7705 88.9377 22.1725 88.7517 22.6388C88.5657 23.1051 88.4727 23.62 88.4727 24.1808C88.4727 24.7358 88.5556 25.2464 88.7231 25.7156C88.8905 26.1833 89.1309 26.5867 89.4442 26.9243C89.7576 27.2618 90.1354 27.525 90.5789 27.7153C91.0211 27.9041 91.5205 27.9999 92.0757 27.9999C92.6952 27.9999 93.2275 27.8998 93.6697 27.701C94.1118 27.5007 94.4853 27.2132 94.7886 26.8384L94.2406 26.2448C94.1862 26.1862 94.1204 26.1576 94.0446 26.1576C94.0002 26.1576 93.9587 26.1676 93.9201 26.1862C93.8814 26.2048 93.8457 26.2305 93.8113 26.2606C93.6968 26.3635 93.5824 26.4508 93.4679 26.5209C93.352 26.591 93.2304 26.6496 93.1016 26.694C92.9728 26.7383 92.8312 26.7712 92.6781 26.7927C92.5249 26.8127 92.3532 26.8241 92.1644 26.8241C91.8467 26.8241 91.5505 26.7641 91.2758 26.6453C90.9996 26.5266 90.7607 26.355 90.5575 26.1318C90.3543 25.9087 90.194 25.6326 90.0738 25.3051C89.9551 24.9775 89.895 24.6042 89.895 24.1836C89.895 23.7774 89.9551 23.4112 90.0738 23.0865C90.1926 22.7561 90.3586 22.48 90.5704 22.2526Z" fill="#005B7F"/>
<path d="M98.048 20.4445L95.1133 27.9141H96.1936C96.3109 27.9141 96.4097 27.8812 96.4912 27.8154C96.5714 27.7496 96.6257 27.6781 96.6543 27.598L97.2124 26.0746H100.307L100.865 27.598C100.9 27.6881 100.956 27.7624 101.033 27.8225C101.11 27.8826 101.209 27.9126 101.331 27.9126H102.405L99.4704 20.4431H98.048V20.4445ZM97.5673 25.0933L98.4773 22.6187C98.5217 22.5057 98.5675 22.3727 98.6147 22.2211C98.6605 22.0695 98.7091 21.9064 98.7563 21.7305C98.805 21.9064 98.8536 22.0695 98.9037 22.2182C98.9538 22.3684 98.9996 22.4986 99.0411 22.6087L99.9511 25.0933H97.5673Z" fill="#005B7F"/>
<path d="M108.766 21.4902C108.436 21.1612 108.038 20.9052 107.573 20.7206C107.108 20.5361 106.593 20.4446 106.028 20.4446H103.176V27.9141H106.028C106.593 27.9141 107.108 27.8226 107.573 27.6409C108.038 27.4578 108.436 27.2018 108.766 26.8713C109.097 26.5409 109.354 26.1461 109.536 25.6884C109.719 25.2307 109.809 24.7272 109.809 24.1793C109.809 23.6315 109.718 23.1294 109.536 22.6703C109.353 22.2125 109.097 21.8192 108.766 21.4902ZM108.224 25.2822C108.114 25.6083 107.956 25.8829 107.753 26.1089C107.55 26.3349 107.302 26.508 107.012 26.6282C106.72 26.7483 106.392 26.8084 106.028 26.8084H104.575V21.5503H106.028C106.392 21.5503 106.722 21.6104 107.012 21.7305C107.302 21.8507 107.55 22.0237 107.753 22.2497C107.956 22.4757 108.114 22.7504 108.224 23.0765C108.334 23.4026 108.39 23.7702 108.39 24.1793C108.389 24.5884 108.334 24.956 108.224 25.2822Z" fill="#005B7F"/>
<path d="M110.898 27.9141H115.612V26.8041H112.299V24.69H114.909V23.6215H112.299V21.5503H115.612V20.4446H110.898V27.9141Z" fill="#005B7F"/>
<path d="M123.712 20.4503C123.668 20.4532 123.626 20.4617 123.59 20.476C123.554 20.4904 123.522 20.5118 123.492 20.5433C123.463 20.5747 123.434 20.6162 123.406 20.6677L121.194 24.8059C121.135 24.916 121.08 25.0319 121.028 25.152C120.976 25.2722 120.926 25.3952 120.877 25.5182C120.829 25.398 120.78 25.2779 120.73 25.1592C120.68 25.0404 120.625 24.926 120.567 24.8159L118.335 20.6677C118.307 20.6162 118.277 20.5747 118.247 20.5433C118.216 20.5118 118.183 20.4904 118.147 20.476C118.111 20.4617 118.07 20.4532 118.026 20.4503C117.981 20.4474 117.927 20.4446 117.865 20.4446H116.816V27.9141H118.041V23.0894C118.041 22.9964 118.038 22.8963 118.033 22.7876C118.027 22.6789 118.018 22.5687 118.004 22.4543L120.293 26.7054C120.345 26.8013 120.412 26.8771 120.495 26.93C120.578 26.9829 120.674 27.0101 120.784 27.0101H120.976C121.086 27.0101 121.182 26.9829 121.265 26.93C121.348 26.8771 121.415 26.8013 121.467 26.7054L123.725 22.47C123.715 22.5802 123.708 22.6889 123.702 22.7961C123.696 22.9034 123.695 23.0007 123.695 23.0908V27.9155H124.92V20.446H123.871C123.809 20.4446 123.756 20.446 123.712 20.4503Z" fill="#005B7F"/>
<path d="M131.241 20.4446C131.124 20.4446 131.028 20.4775 130.952 20.5433C130.876 20.6091 130.819 20.6792 130.782 20.755L129.422 23.2496C129.344 23.3941 129.275 23.5328 129.218 23.6658C129.161 23.7989 129.111 23.9305 129.066 24.0606C129.018 23.9333 128.965 23.8031 128.906 23.6701C128.847 23.5371 128.779 23.3969 128.7 23.2496L127.331 20.755C127.282 20.6649 127.223 20.5919 127.152 20.5333C127.082 20.4746 126.986 20.446 126.865 20.446H125.641L128.364 25.0133V27.917H129.753V25.0133L132.472 20.446H131.241V20.4446Z" fill="#005B7F"/>
<path d="M43.6235 5.3597C44.1243 5.3597 44.5149 4.97063 44.5149 4.46856C44.5149 3.96793 44.1257 3.57886 43.6235 3.57886C43.1226 3.57886 42.7148 3.96793 42.7148 4.46856C42.7134 4.97063 43.1226 5.3597 43.6235 5.3597Z" fill="#005B7F"/>
<path d="M45.9428 5.3597C46.4065 5.3597 46.8329 4.97063 46.8329 4.46856C46.8329 3.96793 46.4065 3.57886 45.9428 3.57886C45.4234 3.57886 45.0156 3.96793 45.0156 4.46856C45.0156 4.97063 45.4234 5.3597 45.9428 5.3597Z" fill="#005B7F"/>
<path d="M53.3118 16.5269C53.3118 16.0262 52.9226 15.6357 52.4203 15.6357C51.9195 15.6357 51.5117 16.0248 51.5117 16.5269C51.5117 17.0275 51.9195 17.4166 52.4203 17.4166C52.9226 17.418 53.3118 17.0275 53.3118 16.5269Z" fill="#005B7F"/>
<path d="M59.2288 16.5269C59.2288 16.0262 58.8024 15.6357 58.3374 15.6357C57.818 15.6357 57.4102 16.0248 57.4102 16.5269C57.4102 17.0275 57.818 17.4166 58.3374 17.4166C58.8024 17.418 59.2288 17.0275 59.2288 16.5269Z" fill="#005B7F"/>
<path d="M56.2055 15.6372C55.7047 15.6372 55.2969 16.0263 55.2969 16.5283C55.2969 17.029 55.7047 17.418 56.2055 17.418C56.7063 17.418 57.0969 17.029 57.0969 16.5283C57.0969 16.0263 56.7063 15.6372 56.2055 15.6372Z" fill="#005B7F"/>
<path d="M67.2829 6.62139C65.3899 6.62139 63.9804 8.27206 63.275 9.97853V4.56162C63.275 3.67191 63.016 3.3186 62.1804 3.3186H61.6796V12.9466H60.1399H59.7693H59.7135C58.8593 12.9466 58.3399 12.5761 58.3027 11.6478V9.4221C58.3027 8.5324 58.0422 8.17909 57.208 8.17909H56.7072V11.5548C56.6514 12.5561 56.1692 12.9466 55.2963 12.9466H55.2405H54.8699H54.8141C53.9599 12.9466 53.4405 12.5761 53.4033 11.6478V9.4221C53.4033 8.5324 53.1443 8.17909 52.3086 8.17909H51.8078V11.5548C51.752 12.5561 51.2698 12.9466 50.397 12.9466H49.9706H48.0961V10.4062C48.0961 8.14333 46.7038 6.62139 44.682 6.62139C42.5299 6.62139 41.1562 8.16049 41.1562 10.6837C41.1562 14.0408 44.5146 14.5057 46.7968 14.5057H49.9691H50.4327H50.8033C51.5646 14.4685 52.1584 14.2268 52.6034 13.8005C53.0298 14.2268 53.6422 14.4685 54.4035 14.5057H54.8671H55.2377H55.7013C56.4625 14.4685 57.0563 14.2268 57.5014 13.8005C57.9278 14.2268 58.5402 14.4685 59.3014 14.5057H59.765H60.1356H71.5842C72.2152 14.5057 72.3268 13.2999 72.3268 12.4102C72.3311 9.51508 70.9389 6.62139 67.2829 6.62139ZM46.6495 12.9466C44.3858 12.9466 42.6415 12.7235 42.6415 10.4234C42.6415 8.97582 43.3842 8.04892 44.516 8.04892C46.7983 8.05035 46.6495 10.2389 46.6495 12.9466ZM63.3866 12.9466C63.906 10.6465 65.3913 8.34644 67.3201 8.34644C70.1776 8.34644 70.5869 11.2959 70.6784 12.9466H63.3866Z" fill="#005B7F"/>
<path d="M83.3139 5.3597C83.7775 5.3597 84.2054 4.97063 84.2054 4.46856C84.2054 3.96793 83.779 3.57886 83.3139 3.57886C82.7945 3.57886 82.3867 3.96793 82.3867 4.46856C82.3867 4.97063 82.7945 5.3597 83.3139 5.3597Z" fill="#005B7F"/>
<path d="M87.3413 14.5057H87.8063H88.1769C88.9381 14.4685 89.532 14.2268 89.977 13.8005C90.4034 14.2268 91.0158 14.4685 91.777 14.5057H91.87H91.9817C92.0561 14.5243 92.0933 14.5243 92.1305 14.5243C93.4669 14.5243 94.3569 14.1538 94.9322 13.3742C95.5632 14.098 96.4718 14.5429 97.5493 14.5429C98.5881 14.5429 99.4609 14.1538 100.055 13.4114C100.558 14.0923 101.245 14.3798 102.263 14.4699V14.5057H103.839C105.881 14.3755 106.438 12.6876 106.438 10.9254V9.42348C106.438 8.53378 106.178 8.18047 105.343 8.18047H104.843V11.5562C104.787 12.5575 104.305 12.948 103.432 12.948H103.098H102.856C101.224 12.948 100.945 12.3358 100.945 10.7409C100.945 8.19906 99.5525 6.67855 97.5493 6.67855C95.3972 6.67855 94.0235 8.21766 94.0235 10.7409C94.0235 12.3186 93.7488 12.9337 92.1648 12.9465C91.3249 12.9394 90.814 12.5689 90.7768 11.6492V9.42205C90.7768 8.53235 90.5164 8.17904 89.6822 8.17904H89.1814V11.5548C89.1256 12.556 88.6434 12.9465 87.7705 12.9465H87.3441H85.4711V10.4062C85.4711 8.14328 84.0788 6.62134 82.057 6.62134C79.9049 6.62134 78.5312 8.16044 78.5312 10.6837C78.5312 14.0408 81.8896 14.5057 84.1718 14.5057H87.3413ZM97.3804 8.17904C98.6983 8.17904 99.4209 9.05015 99.4209 10.7209C99.4209 12.0754 98.7898 13.0395 97.658 13.0395C96.3029 13.0395 95.5431 12.0382 95.5431 10.4791C95.5431 9.05158 96.2672 8.17904 97.3804 8.17904ZM84.0202 12.9465C81.7565 12.9465 80.0122 12.7234 80.0122 10.4233C80.0122 8.97577 80.7549 8.04887 81.8867 8.04887C84.169 8.0503 84.0202 10.2388 84.0202 12.9465Z" fill="#005B7F"/>
<path d="M80.9946 5.3597C81.4954 5.3597 81.8846 4.97063 81.8846 4.46856C81.8846 3.96793 81.4954 3.57886 80.9946 3.57886C80.4937 3.57886 80.0859 3.96793 80.0859 4.46856C80.0859 4.97063 80.4937 5.3597 80.9946 5.3597Z" fill="#005B7F"/>
<path d="M89.8828 16.5269C89.8828 17.0275 90.2906 17.4166 90.81 17.4166C91.2736 17.4166 91.7 17.0275 91.7 16.5269C91.7 16.0262 91.2736 15.6357 90.81 15.6357C90.2906 15.6372 89.8828 16.0262 89.8828 16.5269Z" fill="#005B7F"/>
<path d="M87.7695 16.5269C87.7695 17.0275 88.1773 17.4166 88.6781 17.4166C89.179 17.4166 89.5682 17.0275 89.5682 16.5269C89.5682 16.0262 89.179 15.6357 88.6781 15.6357C88.1773 15.6372 87.7695 16.0262 87.7695 16.5269Z" fill="#005B7F"/>
<path d="M105.732 15.6372C105.212 15.6372 104.805 16.0263 104.805 16.5283C104.805 17.029 105.212 17.418 105.732 17.418C106.196 17.418 106.622 17.029 106.622 16.5283C106.622 16.0263 106.196 15.6372 105.732 15.6372Z" fill="#005B7F"/>
<path d="M104.486 16.5269C104.486 16.0262 104.097 15.6357 103.596 15.6357C103.095 15.6357 102.688 16.0248 102.688 16.5269C102.688 17.0275 103.095 17.4166 103.596 17.4166C104.097 17.4166 104.486 17.0275 104.486 16.5269Z" fill="#005B7F"/>
<path d="M108.864 14.5058H115.154V12.9481C115.154 11.409 114.468 8.6812 112.928 7.77289C112.038 7.14209 111.072 7.14209 111.072 7.14209C110.126 7.14209 109.514 7.49397 109.179 8.12477L108.919 8.60681C108.919 8.60681 109.253 8.42086 109.864 8.42086C110.235 8.42086 110.737 8.49524 111.331 8.73555C112.705 9.31057 113.502 11.6478 113.576 12.9466H108.102V13.689C108.103 14.0781 108.419 14.5058 108.864 14.5058Z" fill="#005B7F"/>
<path d="M119.368 14.5056H119.739H127.014L127.032 12.9479C127.051 10.6478 126.29 7.69831 123.061 7.0861L128.035 3.37565C128.221 3.22689 128.313 3.00518 128.313 2.78204C128.313 2.59609 128.257 2.41156 128.145 2.2628L127.7 1.66919L120.761 6.82577C120.39 7.10469 120.241 7.38219 120.241 7.67971C120.241 7.88426 120.316 8.10597 120.482 8.31052L120.779 8.69958L120.798 8.73677C121.168 8.6252 121.466 8.58801 121.799 8.58801C124.824 8.58801 125.251 11.2958 125.344 12.9479H119.74H119.498C118.59 12.9479 118.088 12.5216 118.088 11.4817V4.56145C118.088 3.67174 117.827 3.31844 116.993 3.31844H116.492V11.5547C116.492 13.2797 117.401 14.4297 119.091 14.5041H119.368V14.5056Z" fill="#005B7F"/>
<path d="M129.833 2.61476H132.078C132.32 2.61476 132.467 2.42881 132.467 2.26289V1.96679H130.89C130.686 1.81803 130.667 1.55913 130.667 1.2802C130.667 0.6494 130.982 0.556424 131.168 0.556424C131.28 0.556424 131.78 0.593614 132.077 1.33599C132.077 1.15004 132.263 0.965517 132.263 0.742375C132.151 0.278927 131.725 0 131.224 0C130.481 0 129.999 0.556424 129.999 1.33599C129.999 1.54054 129.999 1.70646 130.073 1.85522L130.129 1.96679H129.461V2.26289C129.461 2.42881 129.61 2.61476 129.833 2.61476Z" fill="#005B7F"/>
<path d="M130.262 3.32003V13.3929C130.262 14.1724 130.67 14.5057 131.263 14.5057H131.82V4.07957C131.82 3.63472 131.394 3.3186 131.003 3.3186H130.262V3.32003Z" fill="#005B7F"/>
</svg>
